<svg width="439" height="134" viewBox="0 0 439 134" fill="none" xmlns="http://www.w3.org/2000/svg">
<g clip-path="url(#clip0)">
<path fill-rule="evenodd" clip-rule="evenodd" d="M100.207 20.7812L86.4253 33.9297C77.0503 24.0391 66.5034 19.0938 54.7847 19.0938C44.8941 19.0938 36.5503 22.4688 29.7534 29.2188C23.0034 35.9688 19.6284 44.2891 19.6284 54.1797C19.6284 61.0703 21.1284 67.1875 24.1284 72.5312C27.1284 77.875 31.3706 82.0703 36.855 85.1172C42.3394 88.1641 48.4331 89.6875 55.1363 89.6875C60.855 89.6875 66.0816 88.6328 70.8159 86.5234C75.5303 84.3763 80.7094 80.5095 86.3533 74.9229C91.8043 69.3802 94.4643 64.4177 96.5305 57.2487C98.0469 50.1261 101.185 43.9938 105.943 38.8516C112.928 31.3047 121.412 27.5312 131.397 27.5312C135.99 27.5312 140.303 28.3984 144.334 30.1328C148.365 31.8672 152.092 34.4688 155.514 37.9375V29.5H174.639V106H155.514V97.9141C151.764 101.477 147.99 104.055 144.193 105.648C140.443 107.195 136.365 107.969 131.959 107.969C122.068 107.969 113.514 104.148 106.295 96.5078C103.893 93.95 101.891 91.1873 100.288 88.2196L99.7759 88.7642L99.7847 88.7734C92.1441 96.2266 84.9253 101.406 78.1284 104.312C71.3316 107.172 63.5738 108.602 54.855 108.602C38.7769 108.602 25.605 103.516 15.3394 93.3438C5.12064 83.125 0.011261 70.0469 0.011261 54.1094C0.011261 43.7969 2.33157 34.6328 6.9722 26.6172C11.6597 18.6016 18.3394 12.1562 27.0113 7.28125C35.73 2.40625 45.105 -0.03125 55.1363 -0.03125C63.6675 -0.03125 71.8706 1.77344 79.7456 5.38281C87.6675 8.99219 94.4878 14.125 100.207 20.7812ZM135.334 45.25C129.381 45.25 124.436 47.3594 120.498 51.5781C116.561 55.75 114.592 61.1172 114.592 67.6797C114.592 74.2891 116.584 79.7266 120.568 83.9922C124.6 88.2578 129.545 90.3906 135.404 90.3906C141.451 90.3906 146.467 88.3047 150.451 84.1328C154.436 79.9141 156.428 74.4062 156.428 67.6094C156.428 60.9531 154.436 55.5625 150.451 51.4375C146.467 47.3125 141.428 45.25 135.334 45.25ZM201.121 -0.03125H181.926V106H201.121V-0.03125ZM206.369 29.5H225.635V106H206.369V29.5ZM252.047 37.9375V29.5H232.992V133.984H252.047V97.9141C255.797 101.477 259.571 104.055 263.367 105.648C267.164 107.195 271.266 107.969 275.672 107.969C285.563 107.969 294.117 104.148 301.336 96.5078C308.555 88.8203 312.164 79.2812 312.164 67.8906C312.164 56.0781 308.672 46.3984 301.688 38.8516C294.703 31.3047 286.219 27.5312 276.235 27.5312C271.641 27.5312 267.328 28.3984 263.297 30.1328C259.266 31.8672 255.516 34.4688 252.047 37.9375ZM257.18 51.4375C261.164 47.3125 266.18 45.25 272.227 45.25C278.227 45.25 283.196 47.3594 287.133 51.5781C291.071 55.75 293.039 61.1172 293.039 67.6797C293.039 74.2891 291.024 79.7266 286.992 83.9922C283.008 88.2578 278.086 90.3906 272.227 90.3906C266.18 90.3906 261.164 88.3047 257.18 84.1328C253.196 79.9141 251.203 74.4062 251.203 67.6094C251.203 60.9531 253.196 55.5625 257.18 51.4375ZM394.616 73.3047H332.952C333.842 78.7422 336.209 83.0781 340.053 86.3125C343.944 89.5 348.889 91.0938 354.889 91.0938C362.061 91.0938 368.225 88.5859 373.381 83.5703L389.553 91.1641C385.522 96.8828 380.694 101.125 375.069 103.891C369.444 106.609 362.764 107.969 355.03 107.969C343.03 107.969 333.256 104.195 325.709 96.6484C318.163 89.0547 314.389 79.5625 314.389 68.1719C314.389 56.5 318.139 46.8203 325.639 39.1328C333.186 31.3984 342.631 27.5312 353.975 27.5312C366.022 27.5312 375.819 31.3984 383.366 39.1328C390.913 46.8203 394.686 56.9922 394.686 69.6484L394.616 73.3047ZM375.35 58.1875C374.084 53.9219 371.577 50.4531 367.827 47.7812C364.123 45.1094 359.811 43.7734 354.889 43.7734C349.545 43.7734 344.858 45.2734 340.827 48.2734C338.295 50.1484 335.952 53.4531 333.795 58.1875H375.35ZM413.953 29.5H397.5V106H416.555V75.0625L416.484 71.3359C416.484 60.6484 417.492 53.4766 419.508 49.8203C421.57 46.1641 424.078 44.3359 427.031 44.3359C428.484 44.3359 430.336 44.8984 432.586 46.0234L438.562 29.5C435.844 28.1875 433.242 27.5312 430.758 27.5312C427.242 27.5312 424.008 28.5156 421.055 30.4844C418.102 32.4531 415.734 35.3359 413.953 39.1328V29.5Z" fill="#003E6B"/>
<circle cx="216.027" cy="12.2119" r="12" fill="#4098D7"/>
</g>
<defs>
<clipPath id="clip0">
<rect width="439" height="134" fill="white"/>
</clipPath>
</defs>
</svg>
