<svg width="24" height="24" viewBox="0 0 24 24" fill="none" xmlns="http://www.w3.org/2000/svg">
<g clip-path="url(#clip0)">
<path d="M19.922 7.213C19.8093 7.44987 19.7476 7.70776 19.7409 7.96999C19.7341 8.23221 19.7825 8.49293 19.8829 8.73527C19.9833 8.97761 20.1334 9.19618 20.3236 9.37684C20.5138 9.55749 20.7398 9.6962 20.987 9.784L22.252 10.234C22.617 10.3636 22.933 10.603 23.1564 10.9194C23.3799 11.2358 23.4998 11.6137 23.4998 12.001C23.4998 12.3883 23.3799 12.7662 23.1564 13.0826C22.933 13.399 22.617 13.6384 22.252 13.768L20.987 14.218C20.7398 14.3058 20.5138 14.4445 20.3236 14.6252C20.1334 14.8058 19.9833 15.0244 19.8829 15.2667C19.7825 15.5091 19.7341 15.7698 19.7409 16.032C19.7476 16.2942 19.8093 16.5521 19.922 16.789L20.5 18C20.6671 18.3499 20.7216 18.743 20.6561 19.1251C20.5905 19.5073 20.4081 19.8597 20.1339 20.1339C19.8597 20.4081 19.5073 20.5905 19.1251 20.6561C18.743 20.7216 18.3499 20.6671 18 20.5L16.787 19.924C16.5501 19.8113 16.2922 19.7496 16.03 19.7429C15.7678 19.7361 15.5071 19.7845 15.2647 19.8849C15.0224 19.9853 14.8038 20.1354 14.6232 20.3256C14.4425 20.5158 14.3038 20.7418 14.216 20.989L13.766 22.254C13.6362 22.6187 13.3968 22.9343 13.0805 23.1575C12.7642 23.3806 12.3866 23.5004 11.9995 23.5004C11.6124 23.5004 11.2348 23.3806 10.9185 23.1575C10.6022 22.9343 10.3628 22.6187 10.233 22.254L9.783 20.989C9.69509 20.7418 9.55628 20.5158 9.37553 20.3256C9.19478 20.1354 8.97612 19.9852 8.7337 19.8849C8.49128 19.7845 8.2305 19.7361 7.9682 19.7428C7.70591 19.7496 7.44795 19.8113 7.211 19.924L6 20.5C5.65012 20.6678 5.2568 20.7228 4.87432 20.6574C4.49184 20.5921 4.13907 20.4097 3.8647 20.1353C3.59033 19.8609 3.40789 19.5082 3.34257 19.1257C3.27724 18.7432 3.33225 18.3499 3.5 18L4.076 16.787C4.1887 16.5501 4.2504 16.2922 4.25714 16.03C4.26387 15.7678 4.21548 15.5071 4.11509 15.2647C4.01471 15.0224 3.86456 14.8038 3.67437 14.6232C3.48418 14.4425 3.25819 14.3038 3.011 14.216L1.746 13.766C1.38097 13.6364 1.06502 13.397 0.841575 13.0806C0.618134 12.7642 0.498169 12.3863 0.498169 11.999C0.498169 11.6117 0.618134 11.2338 0.841575 10.9174C1.06502 10.601 1.38097 10.3616 1.746 10.232L3.011 9.782C3.25793 9.69417 3.48368 9.55552 3.67368 9.375C3.86369 9.19449 4.01372 8.97614 4.11408 8.73404C4.21445 8.49194 4.26291 8.23148 4.25636 7.96948C4.2498 7.70748 4.18836 7.44977 4.076 7.213L3.5 6C3.33225 5.65012 3.27724 5.25679 3.34257 4.87432C3.40789 4.49184 3.59033 4.13907 3.8647 3.8647C4.13907 3.59033 4.49184 3.40789 4.87432 3.34256C5.2568 3.27724 5.65012 3.33225 6 3.5L7.213 4.076C7.44972 4.18841 7.70738 4.24994 7.96934 4.25664C8.23131 4.26334 8.49177 4.21505 8.73393 4.11489C8.97609 4.01473 9.19456 3.86493 9.37525 3.67513C9.55595 3.48534 9.69485 3.25978 9.783 3.013L10.233 1.748C10.3628 1.38331 10.6022 1.06772 10.9185 0.844547C11.2348 0.621379 11.6124 0.501572 11.9995 0.501572C12.3866 0.501572 12.7642 0.621379 13.0805 0.844547C13.3968 1.06772 13.6362 1.38331 13.766 1.748L14.216 3.013C14.3038 3.26018 14.4425 3.48618 14.6232 3.67637C14.8038 3.86656 15.0224 4.0167 15.2647 4.11709C15.5071 4.21747 15.7678 4.26587 16.03 4.25913C16.2922 4.2524 16.5501 4.19069 16.787 4.078L18 3.5C18.3499 3.3329 18.743 3.27838 19.1251 3.34394C19.5073 3.40951 19.8597 3.59194 20.1339 3.86612C20.4081 4.14029 20.5905 4.49272 20.6561 4.87488C20.7216 5.25703 20.6671 5.65012 20.5 6L19.922 7.213Z" stroke="#384E66" stroke-opacity="0.8" stroke-linecap="round" stroke-linejoin="round"/>
<path d="M11.999 16.501C14.4843 16.501 16.499 14.4863 16.499 12.001C16.499 9.51573 14.4843 7.50101 11.999 7.50101C9.51374 7.50101 7.49902 9.51573 7.49902 12.001C7.49902 14.4863 9.51374 16.501 11.999 16.501Z" stroke="#384E66" stroke-opacity="0.8" stroke-linecap="round" stroke-linejoin="round"/>
</g>
<defs>
<clipPath id="clip0">
<rect width="24" height="24" fill="white"/>
</clipPath>
</defs>
</svg>
