<svg width="166" height="74" viewBox="0 0 166 74" fill="none" xmlns="http://www.w3.org/2000/svg">
<g clip-path="url(#clip0)">
<path fill="#333333" d="M2.25907 52.1576C1.92363 52.5888 1.5745 52.8421 1.28013 52.7942C1.12985 52.794 0.981462 52.7607 0.845433 52.6968C0.709404 52.633 0.589053 52.54 0.492875 52.4245C0.266686 52.1552 0.113467 51.8322 0.0479029 51.4867C-0.0400314 51.11 -0.00893716 50.7154 0.136897 50.3571C0.4397 49.5158 0.956397 48.7679 1.63611 48.187C2.36176 47.5435 3.00525 46.9206 3.60768 46.325C5.11373 44.9559 6.63805 43.662 8.18062 42.4435C9.72318 41.2249 11.3456 40.0543 13.0479 38.9316C13.842 38.4387 14.684 37.9595 15.5671 37.5009C16.4526 37.0418 17.3673 36.6416 18.3054 36.3029C19.2392 35.9657 20.2015 35.7137 21.1806 35.5498C22.1335 35.3939 23.1035 35.3709 24.0627 35.4814C24.804 35.5446 25.5244 35.7596 26.1791 36.1128C26.8339 36.4661 27.4091 36.9502 27.8689 37.5351C28.7727 38.7274 29.3613 40.1283 29.5803 41.6083C29.8933 43.4611 29.9394 45.3491 29.7172 47.215C29.4865 49.1328 29.0809 51.0255 28.5056 52.8695C27.9254 54.7323 27.2069 56.5492 26.356 58.305C25.5435 59.9939 24.6432 61.6391 23.6588 63.2339C22.5974 64.8848 21.4361 66.4691 20.1812 67.978C18.929 69.4851 17.462 70.7998 15.8273 71.8801C15.1569 72.3493 14.4414 72.7506 13.6914 73.0781C12.9076 73.4381 12.0708 73.6693 11.2133 73.7626C10.4477 73.8499 9.67269 73.7317 8.96787 73.4204C8.58996 73.219 8.25908 72.9398 7.9971 72.6011C7.73512 72.2624 7.54801 71.872 7.44812 71.4556C7.15332 70.5385 7.019 69.5774 7.05107 68.6147C7.08018 67.609 7.18314 66.6068 7.35913 65.6162C7.52904 64.6111 7.75762 63.6168 8.0437 62.6384C8.33807 61.6594 8.61874 60.7215 8.88573 59.8179C9.4813 57.7642 10.0974 55.7721 10.7409 53.78C11.3844 51.7879 12.0484 49.7684 12.7536 47.7352C12.8836 47.3382 13.0479 46.9137 13.2328 46.4619C13.4011 46.0296 13.7194 45.6724 14.1295 45.4556C14.2738 45.3657 14.4382 45.313 14.6078 45.3022C14.7775 45.2914 14.9472 45.323 15.1016 45.394C15.2567 45.4549 15.3975 45.5471 15.5153 45.6649C15.6331 45.7827 15.7253 45.9235 15.7862 46.0786C15.9249 46.4715 15.9603 46.8934 15.8889 47.3039C15.8203 47.7685 15.7126 48.2265 15.5671 48.6731C15.4165 49.1318 15.2522 49.5699 15.0743 50.0012C14.8963 50.4324 14.7457 50.809 14.6224 51.1375C13.7462 53.7617 12.854 56.4224 11.9458 59.1197C11.0334 61.8367 10.4138 64.6434 10.0974 67.492C10.0924 67.785 10.1107 68.078 10.1522 68.3682C10.1778 68.6402 10.2545 68.905 10.3781 69.1486C10.5015 69.3757 10.6866 69.5632 10.9121 69.6894C11.2339 69.842 11.5914 69.9036 11.9458 69.8674C13.0317 69.5683 14.0514 69.0666 14.951 68.3888C16.019 67.612 16.9951 66.7163 17.8605 65.7189C18.8346 64.5938 19.729 63.402 20.5371 62.1523C21.3792 60.8516 22.1527 59.5372 22.8578 58.1955C23.5629 56.8537 24.1928 55.5325 24.7473 54.2113C25.2646 53.0281 25.7216 51.8194 26.1164 50.5899C26.2944 49.7205 26.445 48.8032 26.5614 47.8516C26.6842 46.9145 26.73 45.9689 26.6983 45.0243C26.6467 44.1517 26.5044 43.2867 26.2739 42.4435C26.1114 41.6801 25.7527 40.9723 25.2333 40.3898C24.7328 39.8556 24.0805 39.4876 23.3644 39.3355C22.4063 39.1695 21.4222 39.2376 20.4961 39.5341C18.7675 40.0158 17.0876 40.6575 15.4782 41.4509C13.7928 42.272 12.1745 43.2242 10.6382 44.2987C9.05818 45.3932 7.56169 46.6037 6.16113 47.9201C4.7607 49.2373 3.45666 50.6535 2.25907 52.1576Z" />
<path fill="#333333" d="M35.7894 48.9606C35.9549 48.7474 36.1761 48.5841 36.4286 48.4886C36.6811 48.3932 36.955 48.3694 37.2201 48.4198C37.7473 48.5225 38.0279 48.9195 38.069 49.6041C38.107 50.0176 38.0186 50.4329 37.8157 50.7952C37.5825 51.2239 37.3195 51.6357 37.0285 52.0275C36.7067 52.4588 36.3439 52.9516 36.0084 53.4993C35.6309 54.0877 35.3317 54.7229 35.1185 55.3887C35.0355 55.6998 34.9851 56.0187 34.9679 56.3403C34.9268 56.7637 34.9268 57.1901 34.9679 57.6136C35.0112 58.019 35.1446 58.4095 35.3581 58.7568C35.4545 58.9238 35.5932 59.0623 35.7603 59.1585C35.9274 59.2546 36.1169 59.305 36.3097 59.3045C37.0758 59.3448 37.8274 59.0844 38.4045 58.5788C39.0446 58.0279 39.5782 57.3643 39.979 56.6209C40.7976 55.088 41.3048 53.4082 41.4713 51.6783C40.7373 51.3637 40.0877 50.8805 39.5751 50.2681C39.3124 49.9299 39.1268 49.5385 39.031 49.1211C38.9352 48.7037 38.9317 48.2705 39.0206 47.8516C39.1126 47.1649 39.3948 46.5176 39.8352 45.9827C40.2345 45.4742 40.7646 45.0837 41.3687 44.8532C41.9099 44.641 42.5114 44.641 43.0527 44.8532C43.3734 45.025 43.6514 45.2668 43.8659 45.5607C44.0804 45.8546 44.2259 46.193 44.2918 46.5509C44.4896 47.134 44.6183 47.7382 44.6751 48.3513C44.8874 48.3513 45.0722 48.3513 45.2433 48.3513C45.446 48.3401 45.6475 48.3127 45.8458 48.2692C48.6504 47.7939 51.207 46.3706 53.0885 44.237L53.6156 43.6757C53.799 43.479 54.0142 43.3147 54.2523 43.1897C54.447 43.0778 54.676 43.0413 54.8958 43.087C55.166 43.1777 55.3929 43.3656 55.5325 43.6141C55.7545 43.9242 55.8633 44.3012 55.8405 44.682C55.8216 45.0519 55.731 45.4147 55.5735 45.75C55.4112 46.0921 55.199 46.4081 54.9437 46.6878C54.6767 46.9753 54.4303 47.2286 54.1975 47.4545C53.5438 48.061 52.8583 48.6323 52.1438 49.166C51.3702 49.7205 50.5581 50.2192 49.7136 50.6583C48.886 51.1182 48.0146 51.4943 47.1122 51.781C46.2513 52.0634 45.3481 52.1954 44.4424 52.1712C44.2755 53.0018 44.0467 53.8187 43.7578 54.6152C43.4771 55.3819 43.1759 56.1007 42.861 56.7784C42.5553 57.4855 42.2031 58.1715 41.8068 58.8321C41.3971 59.513 40.9225 60.1526 40.3897 60.7421C39.8653 61.3366 39.2645 61.8591 38.603 62.296C37.95 62.726 37.208 63.0022 36.4329 63.1038C35.6718 63.2306 34.8905 63.0825 34.2286 62.6863C33.6405 62.3094 33.1558 61.7918 32.8183 61.1802C32.4636 60.5152 32.2317 59.7916 32.1338 59.0443C32.0237 58.308 32.0007 57.5612 32.0653 56.8195C32.2034 55.3297 32.6117 53.8775 33.2702 52.5341C33.9002 51.2081 34.7522 49.9995 35.7894 48.9606Z" />
<path fill="#333333" d="M54.6973 40.4582C54.9092 40.0865 55.2291 39.788 55.6146 39.6025C55.8132 39.492 56.0425 39.4496 56.2675 39.4818C56.4925 39.5139 56.7008 39.6188 56.8605 39.7805C57.0531 39.9311 57.199 40.1333 57.2814 40.3635C57.3638 40.5937 57.3793 40.8425 57.326 41.0812C57.2727 41.4905 57.1525 41.8883 56.9701 42.2586C56.5647 42.9518 56.2233 43.6805 55.9501 44.4356C55.5869 45.3774 55.2873 46.3425 55.0533 47.3244C54.8133 48.2968 54.6621 49.2889 54.6014 50.2886C54.5243 51.0863 54.6273 51.891 54.9027 52.6436C55.7599 52.1942 56.5502 51.6274 57.2507 50.9595C57.9785 50.2705 58.6471 49.5217 59.2497 48.721C59.8564 47.9116 60.4164 47.0682 60.9269 46.1949C61.4335 45.3323 61.899 44.4766 62.296 43.6209C61.7344 42.7341 61.4353 41.7064 61.4335 40.6567C61.3767 39.6145 61.557 38.573 61.9606 37.6104C62.1196 37.2741 62.2979 36.9472 62.4946 36.6314C62.6973 36.2951 62.9513 35.9925 63.2476 35.7346C63.5101 35.4993 63.8208 35.3241 64.1581 35.2212C64.5127 35.1196 64.8928 35.1588 65.2191 35.3307C65.5843 35.4466 65.9155 35.65 66.184 35.9233C66.4525 36.1965 66.65 36.5313 66.7594 36.8984C66.9725 37.62 67.0239 38.3796 66.91 39.1233C66.8484 39.4587 66.78 39.8078 66.6841 40.2528C66.6178 40.5759 66.5215 40.8922 66.3966 41.1975C67.5714 40.9488 68.6945 40.4996 69.7168 39.8695C70.746 39.2539 71.7054 38.5286 72.5783 37.7062C72.7768 37.494 73.0027 37.2407 73.2629 36.9395C73.4968 36.657 73.7508 36.3916 74.0227 36.1454C74.27 35.9247 74.5553 35.7507 74.8648 35.632C75.0077 35.5805 75.1595 35.5583 75.3112 35.5665C75.4628 35.5747 75.6113 35.6133 75.7479 35.6799C75.9326 35.7583 76.0957 35.8801 76.2232 36.0351C76.3507 36.19 76.4389 36.3735 76.4803 36.5698C76.5435 36.9416 76.5105 37.3234 76.3845 37.6788C76.2513 38.0705 76.0598 38.4397 75.8163 38.7741C75.6072 39.072 75.3785 39.3555 75.1317 39.623C74.4472 40.246 73.7626 40.8621 73.078 41.4782C72.329 42.1017 71.535 42.6691 70.7026 43.1759C69.8342 43.6993 68.9172 44.1372 67.9643 44.4835C66.9444 44.8486 65.8811 45.0787 64.8016 45.1681C63.9465 46.828 62.9814 48.4289 61.9127 49.9601C61.4882 50.5282 60.9885 51.2128 60.4271 52.0138C59.8551 52.8157 59.226 53.5752 58.5446 54.2865C57.9004 54.9747 57.1631 55.5692 56.3539 56.0527C55.6428 56.4884 54.8082 56.6784 53.9785 56.5936C53.6876 56.5717 53.4045 56.4891 53.1474 56.3512C52.8904 56.2132 52.6651 56.023 52.4861 55.7926C52.1447 55.3145 51.9111 54.7679 51.8015 54.1907C51.665 53.5681 51.6007 52.9318 51.6099 52.2944C51.6099 51.6464 51.6304 51.0713 51.6715 50.5693C51.8759 48.82 52.2543 47.0955 52.801 45.4213C53.3253 43.7278 53.9587 42.0699 54.6973 40.4582Z" />
<path fill="#333333" d="M127.851 16.2038C127.68 16.0462 127.479 15.9243 127.26 15.8455C127.042 15.7668 126.809 15.7326 126.577 15.7452C125.976 15.7383 125.377 15.8143 124.797 15.9711C124.161 16.1285 123.64 16.2449 123.25 16.3202C120.59 16.7766 117.945 17.3379 115.316 18.0043C112.687 18.6706 110.075 19.4259 107.478 20.2702C103.206 21.701 98.7631 23.3645 95.0048 25.9864C91.3972 28.4988 89.6652 32.4898 87.0912 35.899C86.8721 36.1865 86.612 36.4398 86.4066 36.7205C85.9548 37.3024 85.4825 37.8774 85.0375 38.4387C84.1009 39.5617 83.0949 40.6248 82.0254 41.622C81.5667 41.9985 81.0738 42.4093 80.5604 42.8611C80.0438 43.3025 79.4971 43.7073 78.9243 44.0728C78.3887 44.422 77.8115 44.7026 77.206 44.9079C76.6706 45.0903 76.0962 45.1258 75.5425 45.0106C77.5172 43.101 79.2841 40.9876 80.8137 38.7057C81.1012 38.2471 81.4572 37.6173 81.8816 36.7958C82.2938 36.0138 82.6 35.1804 82.7921 34.3176C82.9871 33.5672 82.9658 32.7768 82.7305 32.038C82.5868 31.6705 82.3459 31.349 82.0336 31.1079C81.7213 30.8667 81.3493 30.715 80.9574 30.6688C80.2131 30.5171 79.4397 30.6108 78.7531 30.9358C77.9988 31.2778 77.3052 31.7402 76.6994 32.305C76.0787 32.8991 75.5149 33.55 75.0154 34.2492C73.579 36.252 72.5083 38.4931 71.8526 40.869C71.3481 42.5201 71.2681 44.2719 71.6199 45.9622C71.7101 46.7845 72.1148 47.54 72.7494 48.0707C73.3093 48.4832 73.9784 48.7214 74.6731 48.7552C75.4343 48.7841 76.1946 48.6775 76.9185 48.4403C77.6767 48.2065 78.4068 47.8897 79.0954 47.4956C80.7665 46.615 82.3058 45.5043 83.6683 44.196C85.0217 42.9077 86.2929 41.5359 87.4746 40.0886C89.4667 37.6446 90.9385 34.8242 92.9511 32.3734C98.147 25.9864 106.451 23.741 114.173 22.009C117.13 21.3473 119.994 20.7403 122.764 20.1881C123.189 20.1059 123.682 20.0374 124.229 19.9758C124.769 19.9175 125.305 19.8214 125.831 19.6883C126.319 19.5731 126.783 19.3714 127.2 19.0927C127.614 18.8035 127.906 18.3721 128.022 17.881C128.179 17.1143 128.159 16.5119 127.851 16.2038ZM75.9395 38.1101C76.4944 37.1337 77.186 36.2416 77.9932 35.4609C78.0833 35.3379 78.1816 35.2212 78.2876 35.1117C78.4157 34.9806 78.5555 34.8615 78.7052 34.7557C78.8473 34.6519 79.0075 34.5753 79.1776 34.5298C79.2409 34.5085 79.3083 34.5017 79.3747 34.51C79.4411 34.5183 79.5047 34.5415 79.5609 34.5778C79.6014 34.6597 79.6224 34.7499 79.6224 34.8413C79.6224 34.9327 79.6014 35.0229 79.5609 35.1049C79.4621 35.3727 79.3359 35.6296 79.1844 35.8716C79.0201 36.1454 78.849 36.4124 78.6641 36.6862C78.5264 36.9073 78.3755 37.1199 78.2123 37.3229C77.1809 38.8012 76.0094 40.1767 74.7141 41.4303C74.9474 40.2644 75.3608 39.142 75.9395 38.1033V38.1101Z" />
<path fill="#333333" d="M112.099 26.0548C112.029 25.7807 111.867 25.539 111.64 25.3702C111.441 25.2251 111.201 25.1482 110.955 25.1512C110.71 25.172 110.474 25.257 110.271 25.3976C110.058 25.5488 109.869 25.7311 109.709 25.9384C109.552 26.1412 109.438 26.3742 109.374 26.623L102.001 53.0064C101.946 53.2323 101.871 53.4993 101.789 53.7868C101.7 54.0745 101.641 54.3703 101.611 54.6699C101.566 54.9534 101.566 55.2422 101.611 55.5256C101.666 55.8005 101.823 56.0447 102.049 56.2102C102.136 56.3035 102.242 56.3761 102.361 56.4223C102.479 56.4685 102.607 56.4873 102.734 56.4772C102.991 56.4564 103.239 56.3691 103.452 56.2239C103.68 56.0717 103.875 55.8764 104.028 55.6488C104.179 55.4431 104.29 55.2109 104.356 54.9643L111.722 28.6288C111.777 28.396 111.852 28.1359 111.955 27.8347C112.057 27.5403 112.124 27.2346 112.153 26.9242C112.184 26.6334 112.166 26.3395 112.099 26.0548Z" />
<path fill="#333333" d="M128.761 29.2381C128.937 29.328 129.094 29.4526 129.221 29.6043C129.348 29.756 129.443 29.9318 129.5 30.1212C129.593 30.5012 129.593 30.898 129.5 31.2781C129.688 31.3368 129.858 31.4434 129.992 31.5874C130.127 31.7314 130.221 31.9079 130.267 32.0996C130.35 32.3393 130.39 32.5921 130.383 32.8458C130.366 33.1925 130.313 33.5365 130.226 33.8726C130.093 34.3685 129.928 34.8555 129.733 35.3308C129.5 35.9058 129.192 36.5767 128.809 37.3434C128.693 37.5967 128.528 37.9869 128.337 38.5072C128.16 38.9668 128.034 39.4442 127.96 39.9311C127.905 40.3555 127.96 40.6157 128.152 40.6704C128.343 40.7252 128.741 40.4582 129.384 39.8079C131.118 38.1066 132.72 36.2758 134.176 34.3313C135.627 32.3962 137.113 30.2969 138.633 28.0332C138.832 27.7391 139.075 27.4762 139.351 27.2528C139.61 27.0246 139.913 26.8522 140.241 26.7462C140.377 26.7013 140.521 26.6866 140.663 26.7031C140.805 26.7197 140.941 26.7671 141.063 26.8421C141.211 26.9705 141.332 27.1278 141.418 27.3043C141.504 27.4808 141.553 27.6729 141.563 27.8689C141.614 28.3263 141.535 28.7888 141.337 29.2038C141.136 29.6647 140.89 30.1049 140.604 30.5182C140.323 30.9358 140.015 31.3465 139.687 31.7436C139.358 32.1406 139.078 32.5035 138.845 32.8321C138.366 33.4276 137.797 34.2012 137.154 35.1733C136.51 36.1454 135.785 37.138 135.011 38.1717C134.238 39.2054 133.416 40.2254 132.567 41.2044C131.822 42.0943 130.979 42.898 130.055 43.6004C129.361 44.1504 128.555 44.5407 127.693 44.7436C127.32 44.8147 126.934 44.7806 126.578 44.6453C126.223 44.5099 125.912 44.2785 125.68 43.9769C125.429 43.7542 125.239 43.4716 125.126 43.1554C125.005 42.818 124.931 42.4656 124.907 42.108L123.723 43.6346C123.097 44.4242 122.413 45.2319 121.669 46.058C120.962 46.8559 120.091 47.4912 119.115 47.92C118.674 48.1292 118.182 48.2053 117.698 48.1391C117.274 48.0693 116.875 47.89 116.541 47.6188C116.192 47.3322 115.897 46.9842 115.672 46.592C115.438 46.1901 115.287 45.7456 115.227 45.2844C115.079 44.286 115.102 43.2698 115.296 42.2792C115.49 41.2552 115.786 40.2531 116.179 39.2876C116.575 38.3059 117.047 37.3561 117.589 36.4466C118.136 35.5338 118.691 34.6964 119.252 33.9342C119.814 33.1867 120.422 32.4756 121.073 31.8052C121.768 31.0762 122.55 30.4348 123.401 29.8953C124.202 29.3783 125.094 29.0182 126.03 28.8342C126.96 28.6585 127.922 28.8007 128.761 29.2381ZM125.68 35.6457C125.947 35.2349 126.221 34.8036 126.495 34.3518C126.769 33.9 127.022 33.4619 127.248 33.0306C126.783 32.8688 126.289 32.8072 125.798 32.8497C125.307 32.8921 124.831 33.0378 124.4 33.277C123.849 33.5599 123.346 33.9271 122.908 34.3655C122.398 34.8573 121.924 35.3858 121.491 35.9469C121.035 36.541 120.61 37.1579 120.218 37.7952C119.825 38.4433 119.469 39.0525 119.15 39.623C118.558 40.6317 118.15 41.7373 117.945 42.8884C117.863 43.6894 118.089 44.1343 118.629 44.2233C119.17 44.3123 119.567 44.059 120.183 43.4498C120.889 42.7419 121.533 41.9746 122.107 41.1565C122.773 40.2437 123.428 39.2739 124.072 38.247C124.695 37.227 125.235 36.3645 125.68 35.6457Z" />
<path fill="#333333" d="M139.968 24.6446C140.083 24.2908 140.296 23.9773 140.584 23.741C140.843 23.5115 141.156 23.3514 141.494 23.2755C141.639 23.2462 141.788 23.2462 141.932 23.2756C142.077 23.305 142.214 23.3632 142.336 23.4466C142.482 23.5722 142.598 23.7291 142.675 23.9057C142.752 24.0823 142.788 24.2741 142.781 24.4666C142.833 24.9006 142.767 25.3405 142.589 25.7399C142.406 26.1505 142.253 26.5737 142.131 27.0064C141.87 27.5751 141.662 28.1662 141.508 28.7726C141.337 29.4571 141.166 30.1417 141.008 30.8263C140.851 31.5109 140.714 32.127 140.618 32.7226C140.531 33.1931 140.474 33.6687 140.447 34.1465C140.414 34.4374 140.398 34.7299 140.399 35.0227C140.397 35.2683 140.432 35.5128 140.501 35.7484C140.524 35.8304 140.569 35.9043 140.632 35.9613C140.695 36.0184 140.774 36.0561 140.857 36.0701C141.022 36.0701 141.255 35.9469 141.542 35.6251C142.886 34.5387 144.091 33.2901 145.129 31.9079C146.19 30.4977 147.238 29.1286 148.265 27.8005C148.849 26.9973 149.428 26.1164 150.003 25.158C150.558 24.2281 151.219 23.3665 151.975 22.5909C152.102 22.4295 152.265 22.299 152.45 22.2089C152.634 22.1188 152.837 22.0716 153.043 22.0706C153.199 22.0861 153.349 22.1344 153.485 22.2123C153.62 22.2902 153.738 22.3959 153.83 22.5224C154.044 22.8113 154.17 23.1561 154.193 23.5151C154.234 23.919 154.163 24.3263 153.988 24.6925C153.496 25.7313 152.882 26.7079 152.16 27.602C151.414 28.5398 150.708 29.4366 150.044 30.3402C149.38 31.2439 148.675 32.1612 147.956 33.0785C147.238 33.9959 146.512 34.8653 145.745 35.7347C145.084 36.5014 144.351 37.3001 143.548 38.1307C142.776 38.9383 141.874 39.6095 140.878 40.1159C140.479 40.3106 140.03 40.3798 139.591 40.3145C139.221 40.2488 138.881 40.0693 138.619 39.801C138.333 39.5165 138.101 39.1825 137.934 38.8152C137.756 38.4051 137.636 37.9719 137.578 37.5283C137.414 36.4685 137.377 35.3929 137.469 34.3245C137.552 33.2108 137.721 32.1053 137.975 31.018C138.231 29.9272 138.532 28.8502 138.879 27.7868C139.226 26.7234 139.589 25.676 139.968 24.6446ZM145.341 15.0606C145.515 15.3428 145.644 15.6499 145.725 15.9711C145.817 16.3489 145.817 16.7434 145.725 17.1212C145.622 17.6785 145.35 18.1903 144.944 18.5861C144.587 18.9643 144.132 19.2366 143.63 19.3734C143.383 19.448 143.122 19.4618 142.869 19.4135C142.616 19.3653 142.379 19.2564 142.177 19.0963C141.975 18.9362 141.815 18.7295 141.71 18.494C141.606 18.2586 141.56 18.0012 141.576 17.7441C141.505 17.242 141.584 16.7299 141.802 16.2723C142.019 15.7465 142.335 15.2676 142.733 14.8621C143.074 14.503 143.534 14.2793 144.027 14.2323C144.299 14.2469 144.562 14.3306 144.792 14.4756C145.022 14.6206 145.211 14.8219 145.341 15.0606Z" />
<path fill="#333333" d="M159.136 1.45131C159.219 1.22684 159.337 1.01668 159.485 0.828349C159.646 0.618793 159.838 0.434245 160.053 0.280691C160.258 0.13915 160.492 0.0455565 160.737 0.00686245C160.87 -0.0075405 161.004 0.0057066 161.131 0.0457676C161.259 0.0858287 161.376 0.151834 161.477 0.239617C161.641 0.358948 161.775 0.515336 161.868 0.696114C161.961 0.876892 162.01 1.07698 162.011 1.28017C162.042 1.68968 161.974 2.10076 161.812 2.47817C161.251 3.73322 160.726 4.98826 160.238 6.24331C159.745 7.50292 159.266 8.77623 158.786 10.0701C158.307 11.3639 157.671 12.9932 157.02 14.821C156.37 16.6488 155.74 18.5382 155.138 20.5029C154.535 22.4677 154.001 24.4324 153.522 26.404C153.081 28.1772 152.77 29.9801 152.591 31.7984C152.778 31.6997 152.954 31.5828 153.118 31.4492L153.584 31.0727C154.428 30.3329 155.228 29.5443 155.98 28.711C156.751 27.8575 157.495 26.9881 158.211 26.1027C158.896 25.2196 159.581 24.3297 160.183 23.4466C160.785 22.5635 161.354 21.7215 161.86 20.9068C162.229 20.3656 162.569 19.8058 162.88 19.2296C163.161 18.6454 163.649 18.1866 164.249 17.9426C164.381 17.8805 164.525 17.8482 164.67 17.8482C164.816 17.8482 164.96 17.8805 165.091 17.9426C165.319 18.0746 165.495 18.2797 165.591 18.5245C165.701 18.7871 165.759 19.0683 165.762 19.3529C165.765 19.6176 165.738 19.8818 165.68 20.1401C165.449 20.8486 165.092 21.5095 164.626 22.0912L163.291 23.8368C162.99 24.2521 162.579 24.8545 162.059 25.6441C161.532 26.4245 160.929 27.2802 160.231 28.2112C159.533 29.1422 158.821 30.1212 158.027 31.0385C157.29 31.9375 156.494 32.786 155.644 33.5783C154.925 34.2574 154.124 34.8459 153.262 35.3308C152.612 35.7212 151.851 35.8849 151.099 35.7963C150.806 35.7259 150.536 35.5811 150.315 35.3761C150.095 35.171 149.931 34.9126 149.839 34.6257C149.606 33.9669 149.499 33.2702 149.524 32.5719C149.534 31.8258 149.605 31.0817 149.736 30.3471C149.873 29.6009 149.983 28.9779 150.079 28.5946C151.033 24.0364 152.291 19.5471 153.844 15.1564C155.414 10.7478 157.178 6.17942 159.136 1.45131Z" />
</g>
</svg>
