<svg width="24" height="24" viewBox="0 0 24 24" fill="none" xmlns="http://www.w3.org/2000/svg">
<path d="M18.018 17.562C18.3285 17.2 18.4995 16.7389 18.5 16.262V5.5H5.5V20.5H14.58C14.8687 20.4999 15.154 20.4372 15.4162 20.3164C15.6784 20.1956 15.9113 20.0194 16.099 19.8L18.018 17.562Z" stroke="#384E66" stroke-opacity="0.8" stroke-linecap="round" stroke-linejoin="round"/>
<path d="M20.5 2.5H15.052C14.7926 1.90696 14.3659 1.4024 13.8242 1.04809C13.2825 0.693772 12.6493 0.505066 12.002 0.505066C11.3547 0.505066 10.7215 0.693772 10.1798 1.04809C9.63806 1.4024 9.2114 1.90696 8.952 2.5H3.5C3.23478 2.5 2.98043 2.60535 2.79289 2.79289C2.60536 2.98043 2.5 3.23478 2.5 3.5V22.5C2.5 22.7652 2.60536 23.0196 2.79289 23.2071C2.98043 23.3946 3.23478 23.5 3.5 23.5H20.5C20.7652 23.5 21.0196 23.3946 21.2071 23.2071C21.3946 23.0196 21.5 22.7652 21.5 22.5V3.5C21.5 3.23478 21.3946 2.98043 21.2071 2.79289C21.0196 2.60535 20.7652 2.5 20.5 2.5V2.5Z" stroke="#384E66" stroke-opacity="0.8" stroke-linecap="round" stroke-linejoin="round"/>
<path d="M15.5 8.5H8.5" stroke="#384E66" stroke-opacity="0.8" stroke-linecap="round" stroke-linejoin="round"/>
<path d="M15.5 12.5H8.5" stroke="#384E66" stroke-opacity="0.8" stroke-linecap="round" stroke-linejoin="round"/>
<path d="M13 16.5H8.5" stroke="#384E66" stroke-opacity="0.8" stroke-linecap="round" stroke-linejoin="round"/>
</svg>
