<svg fill="none" height="24" viewBox="0 0 24 24" width="24" xmlns="http://www.w3.org/2000/svg"><g stroke="#384e66" stroke-linecap="round" stroke-linejoin="round" stroke-opacity=".8"><path d="m16 23c.8284 0 1.5-.6716 1.5-1.5s-.6716-1.5-1.5-1.5-1.5.6716-1.5 1.5.6716 1.5 1.5 1.5z"/><path d="m5 23c.82843 0 1.5-.6716 1.5-1.5s-.67157-1.5-1.5-1.5-1.5.6716-1.5 1.5.67157 1.5 1.5 1.5z"/><path d="m23.5 1h-.611c-.2449.00003-.4813.08996-.6644.25272-.183.16275-.2999.38703-.3286.63028l-1.796 15.234c-.0287.2433-.1456.4675-.3286.6303-.1831.1627-.4195.2527-.6644.2527h-18.607"/><path d="m10.5 12h-8c-.26522 0-.51957.1054-.70711.2929-.18753.1875-.29289.4419-.29289.7071v2c0 .2652.10536.5196.29289.7071.18754.1875.44189.2929.70711.2929h8z"/><path d="m8.5 10c0-.26522-.10536-.51957-.29289-.70711-.18754-.18753-.44189-.29289-.70711-.29289h-4c-.26522 0-.51957.10536-.70711.29289-.18753.18754-.29289.44189-.29289.70711v2h6z"/><path d="m17.5 6c0-.26522-.1054-.51957-.2929-.70711-.1875-.18753-.4419-.29289-.7071-.29289h-5c-.2652 0-.5196.10536-.7071.29289-.1875.18754-.2929.44189-.2929.70711v10h6c.2652 0 .5196-.1054.7071-.2929s.2929-.4419.2929-.7071z"/></g></svg>